{"asset":{"version":"2.0","generator":"VECTARY"},"scene":0,"nodes":[{"translation":[0,0,0],"scale":[0.001,0.001,0.001],"rotation":[-0.7071067811865475,0,0,0.7071067811865476],"name":"Object"},{"translation":[-0.04,5.3290705182007515e-18,-0.03],"scale":[1,1,1],"rotation":[-0.7071067811865475,0,0,0.7071067811865476],"name":"Cheeseburger","mesh":0},{"translation":[0,0,0],"scale":[0.013820404569115038,0.013820404569115038,0.013820404569115038],"rotation":[-0.7071067811865475,0,0,0.7071067811865476],"name":"Cheeseburger 1","mesh":1}],"materials":[{"pbrMetallicRoughness":{"baseColorFactor":[1,1,1,1],"metallicFactor":0,"roughnessFactor":0.2},"name":"Object material","emissiveFactor":[0,0,0],"alphaMode":"OPAQUE","doubleSided":false},{"pbrMetallicRoughness":{"baseColorFactor":[1,1,1,1],"baseColorTexture":{"index":0},"metallicFactor":0,"roughnessFactor":0.9699476628648295},"name":"Material 1","emissiveFactor":[0,0,0],"alphaMode":"OPAQUE","doubleSided":true},{"pbrMetallicRoughness":{"baseColorFactor":[1,1,1,1],"baseColorTexture":{"index":1},"metallicFactor":0,"roughnessFactor":0.9699476628648295},"name":"Material 2","emissiveFactor":[0,0,0],"alphaMode":"OPAQUE","doubleSided":true}],"textures":[{"sampler":0,"source":0},{"sampler":0,"source":1}],"images":[{"uri":"beb893f8-1a95-42d8-a811-be991a43766d.jpg","mimeType":"image/jpeg"},{"uri":"5569ce54-2606-46d2-b204-90e9d699cae6.jpg","mimeType":"image/jpeg"}],"samplers":[{"wrapS":10497,"wrapT":10497}],"meshes":[{"primitives":[{"mode":4,"attributes":{"POSITION":1,"NORMAL":2,"TEXCOORD_0":3},"material":1,"indices":0}]},{"primitives":[{"mode":4,"attributes":{"POSITION":5,"NORMAL":6,"TEXCOORD_0":7},"material":2,"indices":4}]}],"accessors":[{"bufferView":0,"byteOffset":0,"componentType":5125,"count":3285,"type":"SCALAR"},{"bufferView":1,"byteOffset":0,"componentType":5126,"count":3285,"max":[3.6178390979766846,3.577085018157959,3.809148073196411],"min":[-3.6178390979766846,-3.577085018157959,-6.876439517728209e-16],"type":"VEC3"},{"bufferView":2,"byteOffset":0,"componentType":5126,"count":3285,"type":"VEC3"},{"bufferView":3,"byteOffset":0,"componentType":5126,"count":3285,"type":"VEC2"},{"bufferView":4,"byteOffset":0,"componentType":5125,"count":3285,"type":"SCALAR"},{"bufferView":5,"byteOffset":0,"componentType":5126,"count":3285,"max":[3.6178390979766846,3.577085018157959,3.809148073196411],"min":[-3.6178390979766846,-3.577085018157959,-6.876439517728209e-16],"type":"VEC3"},{"bufferView":6,"byteOffset":0,"componentType":5126,"count":3285,"type":"VEC3"},{"bufferView":7,"byteOffset":0,"componentType":5126,"count":3285,"type":"VEC2"}],"bufferViews":[{"buffer":0,"byteOffset":0,"byteLength":13140,"target":34963},{"buffer":0,"byteOffset":13140,"byteLength":39420,"target":34962},{"buffer":0,"byteOffset":52560,"byteLength":39420,"target":34962},{"buffer":0,"byteOffset":91980,"byteLength":26280,"target":34962},{"buffer":0,"byteOffset":118260,"byteLength":13140,"target":34963},{"buffer":0,"byteOffset":131400,"byteLength":39420,"target":34962},{"buffer":0,"byteOffset":170820,"byteLength":39420,"target":34962},{"buffer":0,"byteOffset":210240,"byteLength":26280,"target":34962}],"scenes":[{"nodes":[0,1,2],"name":"Project Name"}],"buffers":[{"byteLength":236520,"uri":"ProjectName.bin"}]}