{"asset":{"version":"2.0","generator":"VECTARY"},"scene":0,"nodes":[{"translation":[0,0,0],"scale":[0.001,0.001,0.001],"rotation":[-0.7071067811865475,0,0,0.7071067811865476],"name":"Object"},{"translation":[-0.012981151669294604,1.3322676295501879e-18,-0.0066991119995495],"scale":[0.001,0.001,0.001],"rotation":[-0.5383677410936698,0.45843230181750855,0.48985002945239847,0.5099479862157359],"name":"Pin","mesh":0}],"materials":[{"pbrMetallicRoughness":{"baseColorFactor":[1,1,1,1],"metallicFactor":0,"roughnessFactor":0.2},"name":"Object material","emissiveFactor":[0,0,0],"alphaMode":"OPAQUE","doubleSided":false},{"pbrMetallicRoughness":{"baseColorFactor":[0.25098039215686274,0.807843137254902,0.4823529411764706,1],"metallicFactor":0,"roughnessFactor":0.2},"name":"Pin material","emissiveFactor":[0,0,0],"alphaMode":"OPAQUE","doubleSided":false}],"meshes":[{"primitives":[{"mode":4,"attributes":{"POSITION":1,"NORMAL":2,"TEXCOORD_0":3},"material":1,"indices":0}]}],"accessors":[{"bufferView":0,"byteOffset":0,"componentType":5125,"count":10368,"type":"SCALAR"},{"bufferView":1,"byteOffset":0,"componentType":5126,"count":10368,"max":[6.214267730712891,43.46669387817383,99.98174285888672],"min":[-6.214267730712891,-43.46669387817383,0.018254412338137627],"type":"VEC3"},{"bufferView":2,"byteOffset":0,"componentType":5126,"count":10368,"type":"VEC3"},{"bufferView":3,"byteOffset":0,"componentType":5126,"count":10368,"type":"VEC2"}],"bufferViews":[{"buffer":0,"byteOffset":0,"byteLength":41472,"target":34963},{"buffer":0,"byteOffset":41472,"byteLength":124416,"target":34962},{"buffer":0,"byteOffset":165888,"byteLength":124416,"target":34962},{"buffer":0,"byteOffset":290304,"byteLength":82944,"target":34962}],"scenes":[{"nodes":[0,1],"name":"Project Name"}],"buffers":[{"byteLength":373248,"uri":"ProjectName.bin"}]}